<?xml version="1.0" standalone="no"?><!DOCTYPE svg PUBLIC "-//W3C//DTD SVG 1.1//EN" "http://www.w3.org/Graphics/SVG/1.1/DTD/svg11.dtd"><svg t="1536039001466" class="icon" style="" viewBox="0 0 1024 1024" version="1.1" xmlns="http://www.w3.org/2000/svg" p-id="14069" xmlns:xlink="http://www.w3.org/1999/xlink" width="128" height="128"><defs><style type="text/css"></style></defs><path d="M944.426667 329.301333a467.541333 467.541333 0 0 0-100.544-149.162666A467.989333 467.989333 0 0 0 512 42.666667 467.989333 467.989333 0 0 0 180.117333 180.138667a467.882667 467.882667 0 0 0-100.544 149.162666C55.061333 387.178667 42.666667 448.661333 42.666667 512s12.394667 124.821333 36.906666 182.698667a467.861333 467.861333 0 0 0 100.544 149.184 467.52 467.52 0 0 0 149.184 100.544C387.178667 968.917333 448.661333 981.333333 512 981.333333s124.821333-12.416 182.698667-36.885333a467.861333 467.861333 0 0 0 149.184-100.544A468.458667 468.458667 0 0 0 981.333333 512a465.92 465.92 0 0 0-36.906666-182.698667zM512 919.658667C287.189333 919.658667 104.341333 736.810667 104.341333 512S287.189333 104.341333 512 104.341333 919.658667 287.189333 919.658667 512 736.810667 919.658667 512 919.658667z" p-id="14070" fill="#666666"></path><path d="M512 240.149333c-17.002667 0-30.826667 13.781333-30.826667 30.826667V542.976a30.826667 30.826667 0 0 0 61.653334 0v-272c0-17.045333-13.824-30.826667-30.826667-30.826667z" p-id="14071" fill="#666666"></path><path d="M814.826667 542.826667c0-17.002667-13.781333-30.826667-30.826667-30.826667H512a30.848 30.848 0 0 0 0 61.653333H784.021333c17.024 0 30.805333-13.824 30.805334-30.826666z" p-id="14072" fill="#666666"></path></svg>