<?xml version="1.0" standalone="no"?><!DOCTYPE svg PUBLIC "-//W3C//DTD SVG 1.1//EN" "http://www.w3.org/Graphics/SVG/1.1/DTD/svg11.dtd"><svg t="1536037864862" class="icon" style="" viewBox="0 0 1024 1024" version="1.1" xmlns="http://www.w3.org/2000/svg" p-id="13339" xmlns:xlink="http://www.w3.org/1999/xlink" width="128" height="128"><defs><style type="text/css"></style></defs><path d="M254 619.42a94.79 94.79 0 1 0 94.79 94.79A94.8 94.8 0 0 0 254 619.42z m0 135.2a40.35 40.35 0 1 1 40.41-40.29A40.4 40.4 0 0 1 254 754.62z" p-id="13340" fill="#666"></path><path d="M373 323.3H246.73C144.61 323.3 79 490.17 79 506.82v165.59a57.5 57.5 0 0 0 54.38 57.41 112.34 112.34 0 0 1-0.58-12.58 120.87 120.87 0 1 1 241.75 0 114.34 114.34 0 0 1-0.7 12.69h56.59V380.82A57.5 57.5 0 0 0 373 323.3z m-50 65.91c-0.58 12.46 0 70 0 70H215.41c0-0.23-21 0.7-47 7.34a119 119 0 0 0-32.14 14s36.33-63 54.15-84.19c18.4-22 34-20.15 34-20.15h86.52s12.65 0.54 12.06 13zM697.73 620.7H457.39v107.83H648c-0.11-44.94 14.92-84.53 49.73-107.83z" p-id="13341" fill="#666"></path><path d="M768.65 619.42a94.79 94.79 0 1 0 94.79 94.79 94.8 94.8 0 0 0-94.79-94.79z m0 135.2a40.35 40.35 0 1 1 40.41-40.29 40.3 40.3 0 0 1-40.41 40.29zM887.31 215h-372.4v0.12a57.52 57.52 0 0 0-57.52 57.64v321.16H945V272.64A57.62 57.62 0 0 0 887.31 215zM698.39 506.4l-44.83 44.83-44.83-44.83-89.66-89.66 44.83-44.83 89.66 89.66 179.32-179.32 44.83 44.83zM890 707.69c0.7 5.36 1.28 16.65 1.28 22.24 36-5.71 53.57-31.56 53.57-59.39V620.7H841.08c30.28 20.15 43.79 49.38 48.92 86.99z" p-id="13342" fill="#666"></path></svg>
