<?xml version="1.0" standalone="no"?><!DOCTYPE svg PUBLIC "-//W3C//DTD SVG 1.1//EN" "http://www.w3.org/Graphics/SVG/1.1/DTD/svg11.dtd"><svg t="1536036460187" class="icon" style="" viewBox="0 0 1024 1024" version="1.1" xmlns="http://www.w3.org/2000/svg" p-id="1913" xmlns:xlink="http://www.w3.org/1999/xlink" width="128" height="128"><defs><style type="text/css"></style></defs><path d="M519.854387 541.991058c-33.770128 0-61.138452 27.365254-61.138452 61.134359 0 24.331151 14.338566 45.173852 34.936697 55.002708l0 67.242474c0 14.458293 11.743462 26.201755 26.201755 26.201755 14.4542 0 26.201755-11.744485 26.201755-26.201755l0-67.242474c20.59813-9.832949 34.932604-30.671557 34.932604-55.002708C580.988746 569.356312 553.623491 541.991058 519.854387 541.991058L519.854387 541.991058zM773.106298 419.741783 249.161245 419.741783c-28.940123 0-52.404534 23.434735-52.404534 52.375881l0 349.299431c0 28.940123 23.464411 52.400441 52.404534 52.400441l523.945053 0c28.912493 0 52.376904-23.460318 52.376904-52.400441L825.483202 472.117664C825.483202 443.177542 802.018791 419.741783 773.106298 419.741783L773.106298 419.741783zM773.106298 786.481422c0 28.940123-5.991458 34.936697-34.936697 34.936697L284.065196 821.418119c-28.940123 0-34.903951-5.995551-34.903951-34.936697L249.161245 507.055384c0-28.940123 5.963829-34.93772 34.903951-34.93772l454.104405 0c28.940123 0 34.936697 5.996574 34.936697 34.93772L773.106298 786.481422 773.106298 786.481422zM263.559163 393.380392c14.546298 0 26.374694-11.592013 26.773783-26.042119l0.056282 0.004093c23.676236-100.089579 113.40177-174.649715 220.730217-174.649715 83.894735 0 156.921959 45.656853 196.170868 113.362884 4.085038 9.245572 13.326517 15.697517 24.083511 15.697517 14.538111 0 26.322505-11.784394 26.322505-26.322505 0-5.672186-1.798972-10.920724-4.848425-15.217586-48.290843-83.539648-138.28653-139.924843-241.72846-139.924843-135.168516 0-247.732198 92.756567-273.650497 220.198098-0.12382 0.528026-0.228197 1.056052-0.319272 1.595334-0.127913 0.635473-0.264013 1.266853-0.38374 1.906419l0.12382 0.008186c-0.079818 0.851391-0.12382 1.716084-0.12382 2.589988C236.762867 381.38315 248.757039 393.380392 263.559163 393.380392L263.559163 393.380392zM263.559163 393.380392" p-id="1914" fill="#01458e"></path></svg>