<?xml version="1.0" standalone="no"?><!DOCTYPE svg PUBLIC "-//W3C//DTD SVG 1.1//EN" "http://www.w3.org/Graphics/SVG/1.1/DTD/svg11.dtd"><svg t="1509681913803" class="icon" style="" viewBox="0 0 1067 1024" version="1.1" xmlns="http://www.w3.org/2000/svg" p-id="2545" xmlns:xlink="http://www.w3.org/1999/xlink" width="133.375" height="128"><defs><style type="text/css"></style></defs><path d="M1028.565333 554.666667H38.101333a38.101333 38.101333 0 0 1 0-76.202667h990.464a38.101333 38.101333 0 1 1 0 76.16z m-114.304 457.088h-228.565333a38.058667 38.058667 0 1 1 0-76.16h228.565333c21.034667 0 38.101333-17.066667 38.101334-38.101334V706.986667a38.058667 38.058667 0 1 1 76.202666 0v190.464a114.432 114.432 0 0 1-114.304 114.261333z m-571.392 0H152.32a114.432 114.432 0 0 1-114.261333-114.261334V706.986667a38.101333 38.101333 0 1 1 76.202666 0v190.464c0 21.034667 17.066667 38.101333 38.058667 38.101333h190.506667a38.101333 38.101333 0 1 1 0 76.16zM76.202667 364.16a38.101333 38.101333 0 0 1-38.101334-38.058667V135.594667A114.432 114.432 0 0 1 152.32 21.333333h190.506667a38.101333 38.101333 0 0 1 0 76.202667H152.32c-20.992 0-38.058667 17.066667-38.058667 38.058667v190.506666c0 20.992-17.066667 38.058667-38.101333 38.058667z m914.261333 0a38.101333 38.101333 0 0 1-38.101333-38.058667V135.594667c0-20.949333-17.066667-38.058667-38.101334-38.058667h-228.565333a38.101333 38.101333 0 1 1 0-76.202667h228.565333a114.432 114.432 0 0 1 114.346667 114.261334v190.506666c0 20.992-17.066667 38.058667-38.144 38.058667z" p-id="2546" fill="#ffffff"></path></svg>
