<?xml version="1.0" standalone="no"?><!DOCTYPE svg PUBLIC "-//W3C//DTD SVG 1.1//EN" "http://www.w3.org/Graphics/SVG/1.1/DTD/svg11.dtd"><svg t="1536037722674" class="icon" style="" viewBox="0 0 1024 1024" version="1.1" xmlns="http://www.w3.org/2000/svg" p-id="6039" xmlns:xlink="http://www.w3.org/1999/xlink" width="128" height="128"><defs><style type="text/css"></style></defs><path d="M996.233899 861.184l-202.274134-202.274133 26.965334-27.0336-26.965334-26.965334-80.896 80.896L578.168832 550.912l162.065067-162.065067c21.572267 7.645867 44.168533 11.605333 67.310933 11.605334 53.384533 0 103.6288-20.8896 141.448533-58.641067a199.2704 199.2704 0 0 0 42.120534-220.842667l-11.127467-25.873066-86.903467 86.971733-70.0416 0.955733 0.955734-66.7648L912.607232 27.648 886.870699 16.384A199.748267 199.748267 0 0 0 807.135232 0c-53.4528 0-103.697067 20.821333-141.380267 58.5728a198.997333 198.997333 0 0 0-46.967466 208.896L456.790699 429.6704 227.414699 200.226133l27.0336-26.897066L106.173099 24.9856 25.208832 105.8816 173.484032 254.225067l26.965333-26.965334 229.307734 229.307734L267.692032 618.496a199.68 199.68 0 0 0-67.515733-11.605333 198.656 198.656 0 0 0-141.380267 58.5728 199.133867 199.133867 0 0 0-42.052267 221.184l11.127467 25.736533 88.610133-88.610133 66.7648-0.955734-0.955733 70.0416-86.971733 86.903467 25.873066 11.127467c25.1904 10.922667 51.882667 16.384 79.394134 16.384 53.4528 0 103.697067-20.753067 141.380266-58.5728 55.296-55.227733 73.045333-135.850667 47.104-208.6912l162.065067-162.133334 134.894933 134.894934-80.964266 80.896 26.965333 26.965333 26.965333-26.965333 202.274134 202.3424c18.0224 18.0224 41.984 27.921067 67.447466 27.921066s49.425067-9.898667 67.447467-27.989333a95.505067 95.505067 0 0 0 0-134.826667zM79.207765 105.8816l26.965334-26.965333L200.517632 173.397333l-26.965333 26.965334L79.276032 105.813333z m270.062934 637.1328c26.4192 61.44 12.970667 131.618133-34.133334 178.858667a160.699733 160.699733 0 0 1-114.4832 47.3088c-12.424533 0-24.576-1.365333-36.522666-4.096l56.1152-56.183467 1.706666-124.654933-121.4464 1.6384-57.890133 57.890133a160.904533 160.904533 0 0 1 43.2128-151.278933 160.699733 160.699733 0 0 1 114.414933-47.445334c22.391467 0 44.100267 4.5056 64.580267 13.380267l11.946667 5.188267 387.072-387.072-5.188267-11.946667c-26.624-61.44-13.243733-131.754667 34.065067-179.063467A160.631467 160.631467 0 0 1 807.135232 38.229333c12.4928 0 24.849067 1.365333 36.864 4.232534l-57.890133 57.890133-1.706667 121.4464 124.654933-1.706667 56.183467-56.183466a161.109333 161.109333 0 0 1-43.2128 151.074133 160.836267 160.836267 0 0 1-114.4832 47.377067c-22.3232 0-44.032-4.5056-64.443733-13.243734l-11.8784-5.188266-387.072 387.2768 5.12 11.8784z m619.997866 226.0992a56.9344 56.9344 0 0 1-40.482133 16.725333 56.9344 56.9344 0 0 1-40.482133-16.725333l-202.274134-202.3424 80.896-80.896 202.274134 202.274133a57.275733 57.275733 0 0 1 0 80.964267z" p-id="6040" fill="#666"></path></svg>
