<?xml version="1.0" standalone="no"?><!DOCTYPE svg PUBLIC "-//W3C//DTD SVG 1.1//EN" "http://www.w3.org/Graphics/SVG/1.1/DTD/svg11.dtd"><svg t="1509365003026" class="icon" style="" viewBox="0 0 1024 1024" version="1.1" xmlns="http://www.w3.org/2000/svg" p-id="24511" xmlns:xlink="http://www.w3.org/1999/xlink" width="200" height="200"><defs><style type="text/css"></style></defs><path d="M679.02464 547.16928l-17.17248-6.53824 14.59712-11.16672C752.52736 471.28576 796.16 387.16416 796.16 298.66496 796.16 139.62752 666.77248 10.24 507.73504 10.24S219.30496 139.62752 219.30496 298.66496c0 89.86624 44.75392 177.7408 119.71072 235.06944l14.82752 11.3408-17.52576 6.41024c-174.6176 63.88736-291.9424 236.63104-291.9424 429.84448 0 20.02944 16.83456 32.43008 32.42496 32.43008 20.02944 0 32.42496-16.83456 32.42496-32.43008 0-105.91232 40.84224-205.0816 114.9952-279.23968 74.15808-74.15808 173.33248-115.00032 279.2448-115.00032H512c105.91232 0 205.0816 40.84224 279.23968 115.00032S906.24 875.4176 906.24 981.32992c0 20.02944 16.83456 32.43008 32.43008 32.43008 20.02432 0 32.41984-16.83456 32.41984-32.43008 7.92576-190.2848-109.45024-364.59008-292.06528-434.16064z m-171.2896-29.19936c-120.92416 0-219.30496-98.37568-219.30496-219.30496S386.81088 79.36 507.73504 79.36 727.04 177.7408 727.04 298.66496c0 120.92928-98.3808 219.30496-219.30496 219.30496z" p-id="24512" fill="#01458e"></path></svg>